<svg
	viewBox="0 0 24 24" version="1.1"
	xmlns="http://www.w3.org/2000/svg"
	xmlns:xlink="http://www.w3.org/1999/xlink">
	<path d="M12 .3a12 12 0 0 0-3.793 23.383c.6.1.82-.26.82-.578L9 21.064c-3.338.725-4.043-1.61-4.043-1.61A3.174 3.174 0 0 0 3.635 17.7c-1.09-.745.083-.73.083-.73a2.521 2.521 0 0 1 1.838 1.237 2.554 2.554 0 0 0 3.492 1 2.564 2.564 0 0 1 .762-1.6c-2.665-.3-5.466-1.333-5.466-5.93a4.637 4.637 0 0 1 1.235-3.22A4.319 4.319 0 0 1 5.7 5.273S6.7 4.95 9 6.5a11.374 11.374 0 0 1 6.009 0c2.29-1.552 3.3-1.23 3.3-1.23a4.316 4.316 0 0 1 .119 3.176 4.631 4.631 0 0 1 1.233 3.22c0 4.6-2.8 5.624-5.48 5.92a2.865 2.865 0 0 1 .815 2.223l-.015 3.292c0 .32.217.694.826.577A12 12 0 0 0 12 .3z" fill="#fff" fill-rule="evenodd"/>
</svg>
